<svg xmlns="http://www.w3.org/2000/svg" xmlns:xlink="http://www.w3.org/1999/xlink" width="35" height="35" viewBox="0 0 35 35">
  <defs>
    <clipPath id="clip-Пользовательский_размер_1">
      <rect width="35" height="35"/>
    </clipPath>
  </defs>
  <g id="Пользовательский_размер_1" data-name="Пользовательский размер – 1" clip-path="url(#clip-Пользовательский_размер_1)">
    <rect width="35" height="35" fill="#fff"/>
    <path id="Icon_ionic-ios-lock" data-name="Icon ionic-ios-lock" d="M30.072,15.369h-2v-3.89a8,8,0,1,0-15.992-.108v4h-2A3.341,3.341,0,0,0,6.75,18.7V34.693a3.341,3.341,0,0,0,3.332,3.332h19.99A3.341,3.341,0,0,0,33.4,34.693V18.7A3.341,3.341,0,0,0,30.072,15.369ZM21.243,25.764v5.731a1.194,1.194,0,0,1-1.108,1.2,1.167,1.167,0,0,1-1.224-1.166V25.764a2.665,2.665,0,1,1,2.332,0Zm4.5-10.395H14.413v-4a5.664,5.664,0,0,1,11.328,0Z" transform="translate(-2.577 -3.2)"/>
  </g>
</svg>
